<svg width="28" height="29" viewBox="0 0 28 29" fill="none" xmlns="http://www.w3.org/2000/svg">
<g clip-path="url(#clip0_3315_10525)">
<path fill-rule="evenodd" clip-rule="evenodd" d="M11.0005 10.8485H15.3335V13.0069C15.9576 11.7655 17.5583 10.6502 19.9628 10.6502C24.5723 10.6502 25.6666 13.1212 25.6666 17.6549V26.0513H21V18.6874C21 16.1055 20.3758 14.6495 18.7868 14.6495C16.583 14.6495 15.6671 16.2187 15.6671 18.6862V26.0513H11.0005V10.8485ZM2.99831 25.853H7.66498V10.6502H2.99831V25.853ZM8.33348 5.69302C8.33365 6.08417 8.25608 6.47146 8.10526 6.83237C7.95445 7.19328 7.73341 7.52062 7.45498 7.79535C6.89078 8.35608 6.12709 8.66995 5.33165 8.66802C4.5376 8.66748 3.77568 8.35442 3.21065 7.79652C2.93323 7.52085 2.71293 7.19315 2.56238 6.83219C2.41183 6.47123 2.33399 6.08411 2.33331 5.69302C2.33331 4.90318 2.64831 4.14718 3.21181 3.58952C3.77635 3.03087 4.53859 2.71767 5.33281 2.71802C6.12848 2.71802 6.89148 3.03185 7.45498 3.58952C8.01731 4.14718 8.33348 4.90318 8.33348 5.69302Z" fill="#D9F8FF"/>
</g>
<defs>
<clipPath id="clip0_3315_10525">
<rect width="28" height="28" fill="white" transform="translate(0 0.384766)"/>
</clipPath>
</defs>
</svg>
