<svg width="28" height="29" viewBox="0 0 28 29" fill="none" xmlns="http://www.w3.org/2000/svg">
<g clip-path="url(#clip0_3315_10527)">
<path d="M26.7308 7.47408C26.8368 7.33456 26.6866 7.14921 26.5223 7.2101C26.0551 7.38322 25.5755 7.52035 25.0877 7.62035C24.9028 7.65825 24.8002 7.39624 24.9437 7.27367C25.5131 6.78735 25.9646 6.17558 26.2615 5.48481C26.3252 5.33665 26.1629 5.20278 26.0205 5.2785C25.2039 5.7127 24.3283 6.02773 23.4218 6.21619C23.3626 6.2285 23.3015 6.20848 23.2594 6.16514C22.5334 5.41873 21.5869 4.92351 20.5579 4.75336C19.4969 4.57792 18.4077 4.75792 17.4596 5.26538C16.5115 5.77283 15.7576 6.57931 15.3151 7.55944C14.9046 8.46872 14.7835 9.4802 14.9649 10.4575C14.9861 10.572 14.8967 10.6794 14.7805 10.6716C12.9212 10.5472 11.1052 10.0489 9.44166 9.20569C7.7842 8.36552 6.3135 7.20088 5.11642 5.78184C5.03753 5.68831 4.88931 5.70004 4.83334 5.80884C4.47881 6.49792 4.29353 7.26297 4.29463 8.04035C4.29463 9.51279 4.94782 10.8359 5.97954 11.731C6.11237 11.8463 6.03069 12.0715 5.85699 12.044C5.31579 11.9583 4.79162 11.7815 4.30715 11.5199C4.28366 11.5073 4.25496 11.5242 4.25496 11.5508C4.25493 12.6777 4.64467 13.7699 5.35808 14.6421C5.91448 15.3224 6.64105 15.8363 7.45787 16.1355C7.63119 16.199 7.62663 16.4547 7.44326 16.4757C7.04889 16.5209 6.64994 16.5182 6.2552 16.4671C6.12346 16.4501 6.0145 16.5745 6.06267 16.6983C6.39488 17.5523 6.96159 18.2975 7.70012 18.8465C8.38575 19.3561 9.19065 19.6752 10.0333 19.776C10.1967 19.7955 10.2638 20.0084 10.1295 20.1034C9.2145 20.7506 8.1942 21.2366 7.1126 21.5391C6.11823 21.8173 5.08769 21.936 4.05925 21.8923C3.87357 21.8844 3.79024 22.1331 3.95187 22.2249C6.02897 23.4038 8.38073 24.0259 10.7778 24.0237C19.7541 24.0237 24.6611 16.5885 24.6611 10.1403C24.6611 9.96189 24.6578 9.78176 24.651 9.60351C24.6488 9.54463 24.676 9.48848 24.7234 9.4535C25.484 8.89246 26.1598 8.22534 26.7308 7.47408Z" fill="#D9F8FF"/>
</g>
<defs>
<clipPath id="clip0_3315_10527">
<rect width="28" height="28" fill="white" transform="translate(0 0.384766)"/>
</clipPath>
</defs>
</svg>
