<svg width="1440" height="594" viewBox="0 0 1440 594" fill="none" xmlns="http://www.w3.org/2000/svg">
<g opacity="0.65">
<path d="M-143.952 196.467C-24.3428 229.948 91.3199 277.146 200.129 337.129C254.267 366.973 305.75 400.802 357.378 434.739C408.173 468.124 460.072 500.892 516.767 523.384C570.834 544.842 630.092 557.278 688.346 550.82C749.82 544.01 802.143 513.457 850.794 476.99C902.789 438.018 953.441 397.958 1008.13 362.722C1063.73 326.907 1121.6 294.591 1181.25 266.064C1276.95 220.31 1391.17 178.961 1497.49 210.885C1510.56 214.809 1523.22 219.911 1535.43 225.993C1537.05 226.802 1538.47 224.361 1536.84 223.555C1440.49 175.582 1328.44 200.782 1233.66 239.569C1115.71 287.835 1004.14 355.782 903.061 433.092C852.345 471.881 802.498 515.599 741.03 536.381C683.065 555.962 620.084 552.081 561.83 535.706C441.018 501.714 342.84 416.664 236.181 354.351C130.372 292.541 17.4765 242.862 -99.5358 206.594C-114.041 202.105 -128.608 197.822 -143.226 193.729C-144.958 193.257 -145.702 195.985 -143.952 196.467Z" fill="url(#paint0_linear_5219_32319)"/>
<path d="M1535.22 211.53C1436 170.057 1323.9 204.699 1231.06 246.81C1115.49 299.237 1005.64 366.733 902.632 440.643C852.8 476.405 802.333 515.143 742.2 531.533C685.86 546.878 626.009 540.784 570.504 524.857C453.778 491.348 354.923 415.981 247.786 361.528C139.935 306.698 25.5027 264.637 -91.925 235.702C-106.325 232.149 -120.783 228.816 -135.283 225.656C-137.052 225.267 -137.795 227.996 -136.027 228.384C-16.9796 254.371 99.1729 293.588 209.33 345.799C265.646 372.486 319.338 403.663 373.11 435.081C423.657 464.6 474.986 493.603 529.878 514.328C582.04 534.015 638.279 546.632 694.281 542.502C753.056 538.155 804.657 512.152 852.733 479.536C904.78 444.19 954.994 406.528 1008.16 372.797C1061.71 338.831 1116.73 307.161 1173.15 278.202C1226.03 251.051 1280.35 225.986 1337.91 210.433C1389.96 196.368 1445.65 189.911 1498.7 202.533C1510.95 205.45 1522.87 209.403 1534.48 214.259C1536.16 214.964 1536.88 212.226 1535.22 211.53Z" fill="url(#paint1_linear_5219_32319)"/>
<path d="M1533.92 199.65C1433.04 165.988 1322.86 208.288 1232.39 252.805C1120.42 307.904 1013.12 373.756 909.237 442.739C858.882 476.17 807.305 511.799 747.414 525.333C691.431 537.98 632.872 529.946 578.445 513.848C464.26 480.067 363.972 412.159 255.092 365.585C146.834 319.268 32.7452 286.061 -83.0155 264.982C-97.767 262.298 -112.563 259.831 -127.386 257.532C-129.167 257.263 -129.928 259.982 -128.13 260.26C-10.7663 278.439 104.756 308.982 215.378 352.355C272.189 374.627 326.607 401.589 380.745 429.635C432.322 456.349 484.121 483.238 538.644 503.507C589.743 522.5 644.164 536.013 698.994 534.214C757.11 532.309 809.239 509.424 858.112 479.343C910.668 446.989 961.29 411.557 1013.83 379.134C1067.5 345.998 1122.04 314.223 1177.62 284.391C1229.5 256.531 1282.37 229.996 1338.54 211.819C1389.17 195.432 1443.62 185.197 1496.79 193.491C1509.15 195.427 1521.29 198.431 1533.15 202.399C1534.91 202.952 1535.64 200.228 1533.92 199.65Z" fill="url(#paint2_linear_5219_32319)"/>
<path d="M1532.62 187.761C1484.29 175.949 1433.91 181.804 1386.5 194.946C1332.27 209.989 1280.81 234.113 1231.27 260.482C1123.37 317.915 1018.73 381.825 914.514 445.649C862.836 477.3 809.392 509.937 748.613 519.834C693.304 528.836 636.678 518.589 583.745 502.076C473.138 467.585 372.642 407.348 263.319 369.313C153.895 331.231 39.1461 307.059 -75.8335 293.854C-90.4617 292.175 -105.111 290.692 -119.787 289.377C-121.597 289.219 -121.6 292.041 -119.804 292.203C-3.13315 302.674 112.773 324.679 224.667 359.555C281.211 377.177 335.683 399.71 389.529 424.267C441.741 448.064 493.668 472.872 547.55 492.713C597.965 511.275 651.096 525.806 705.155 525.982C762.062 526.156 814.348 506.474 863.511 479.166C916.477 449.757 967.489 416.544 1019.45 385.416C1071.92 353.991 1124.63 322.956 1177.96 293.023C1229.6 264.044 1281.75 235.556 1337.14 214.326C1386.69 195.347 1440.08 181.175 1493.57 184.6C1506.5 185.434 1519.28 187.404 1531.86 190.48C1533.64 190.909 1534.39 188.195 1532.62 187.761Z" fill="url(#paint3_linear_5219_32319)"/>
<path d="M1531.32 175.868C1481.84 168.454 1431.77 178.73 1385.03 194.922C1331.22 213.564 1280.41 240.102 1231.04 268.225C1126.86 327.569 1024.32 389.732 919.749 448.404C867.212 477.888 812.285 507.282 751.406 513.698C696.832 519.448 642.051 507.479 590.364 490.705C481.06 455.251 379.042 400.611 267.584 371.231C158.141 342.393 44.1268 327.833 -68.7784 322.697C-83.1462 322.044 -97.511 321.566 -111.89 321.253C-113.711 321.215 -113.728 324.041 -111.907 324.079C2.78544 326.675 117.666 339.512 229.623 364.87C286.287 377.709 341.179 395.759 395.166 417.136C448.598 438.295 501.198 461.579 555.128 481.436C604.83 499.736 656.661 515.302 709.893 517.674C765.459 520.15 817.623 504.098 867.059 479.771C919.99 453.719 970.89 422.977 1021.92 393.416C1074.35 363.053 1126.47 332.175 1178.82 301.66C1229.86 271.902 1280.94 241.888 1334.99 217.83C1384.54 195.769 1438.07 177.276 1492.82 176.184C1505.46 175.926 1518.06 176.701 1530.57 178.582C1532.35 178.865 1533.11 176.146 1531.32 175.868Z" fill="url(#paint4_linear_5219_32319)"/>
<path d="M1529.65 163.926C1479.63 161.453 1430.35 176.061 1384.62 195.069C1330.67 217.491 1279.88 246.799 1229.97 276.969C1129.25 337.824 1028.38 398.356 923.478 451.798C870.685 478.69 815.203 503.993 755.163 507.276C700.675 510.24 646.794 496.29 595.616 478.912C489.317 442.843 387.582 394.384 276.482 373.912C166.15 353.586 51.8207 348.802 -60.1315 351.581C-74.7386 351.943 -89.3427 352.479 -103.951 353.163C-105.753 353.251 -105.787 356.067 -103.968 355.989C10.343 350.677 125.841 354.373 239.224 370.666C294.93 378.675 349.171 392.338 402.442 410.443C456.466 428.798 509.274 450.461 562.786 470.226C612.227 488.479 663.218 505.162 716.035 509.472C771.483 514.013 824.285 500.507 874.791 478.321C927.949 454.97 979.21 426.5 1029.84 398.198C1081.31 369.441 1132.01 339.323 1182.52 308.92C1233.45 278.257 1283.92 246.653 1337.12 220.018C1386.15 195.461 1438.73 173.525 1493.75 167.743C1505.68 166.491 1517.65 166.176 1529.64 166.765C1531.44 166.838 1531.46 164.012 1529.65 163.926Z" fill="url(#paint5_linear_5219_32319)"/>
<path d="M1528.34 152.046C1479.1 154.875 1431.92 172.795 1387.86 193.939C1335.53 219.057 1286.16 249.886 1237.21 280.937C1138.4 343.62 1037.92 403.725 931.601 452.854C878.471 477.396 822.506 499.481 763.183 500.642C709.162 501.698 656.261 486.448 605.711 468.798C501.252 432.295 399.406 388.324 288.394 376.029C232.024 369.792 174.856 369.513 118.212 370.482C61.3942 371.454 4.60221 374.758 -51.943 380.291C-66.6548 381.734 -81.3537 383.333 -96.0333 385.06C-97.8156 385.274 -97.8497 388.09 -96.05 387.885C16.671 374.624 131.322 368.782 244.746 375.256C301.866 378.515 357.712 388.357 412.646 404.276C467.026 420.037 519.871 440.257 572.901 459.917C621.893 478.072 671.962 495.616 724.145 501.542C779.595 507.836 833.231 496.403 884.769 476.161C937.282 455.527 988.116 429.715 1037.75 402.968C1089.63 375.018 1140.28 344.843 1190.34 313.756C1240.48 282.62 1289.72 249.998 1341.34 221.331C1388.35 195.226 1438.07 170.898 1491.05 159.859C1503.36 157.292 1515.8 155.596 1528.34 154.882C1530.13 154.766 1530.16 151.937 1528.34 152.046Z" fill="url(#paint6_linear_5219_32319)"/>
<path d="M1526.67 140.197C1478.22 148.486 1432.75 169.894 1390 193.452C1338.85 221.643 1290.41 254.385 1241.81 286.674C1143.26 352.167 1041.15 412.871 931.301 457.507C878.246 479.061 822.302 496.376 764.39 494.03C710.95 491.861 659.335 474.702 609.518 456.462C505.758 418.484 402.293 379.098 290.427 376.476C234.429 375.167 178.105 380.275 122.449 385.964C66.5228 391.682 10.8086 399.39 -44.5795 408.969C-59.2452 411.51 -73.8743 414.187 -88.4878 416.977C-90.2646 417.322 -89.5337 420.049 -87.7569 419.705C24.803 398.213 139.991 382.331 254.688 379.386C311.145 377.941 366.675 383.877 421.568 397.19C476.553 410.523 529.732 429.646 582.645 449.468C631.778 467.877 681.587 486.631 733.791 493.999C787.848 501.631 840.963 492.779 892.256 475.219C1002.15 437.617 1104.81 378.521 1202.16 315.965C1251.25 284.421 1299.09 250.977 1348.94 220.606C1394.48 192.864 1442.14 166.252 1493.46 150.891C1504.62 147.552 1515.93 144.872 1527.41 142.908C1529.18 142.621 1528.44 139.897 1526.67 140.197Z" fill="url(#paint7_linear_5219_32319)"/>
<path d="M1525.36 128.298C1477.27 142.383 1432.94 167.505 1390.72 194.034C1341.43 225.016 1294.37 259.303 1246.56 292.463C1149.9 359.524 1047.86 419.669 936.729 459.401C883.657 478.387 827.762 492.122 771.002 487.48C717.586 483.111 666.52 464.299 616.791 445.407C515.197 406.791 411.786 371.367 301.527 376.704C244.718 379.457 188.161 390.065 132.35 400.518C75.5938 411.15 19.1549 423.51 -36.8654 437.541C-51.464 441.204 -66.047 444.98 -80.6008 448.865C-82.3582 449.336 -81.6274 452.064 -79.8699 451.593C-23.0099 436.445 34.2887 422.934 91.9606 411.252C148.552 399.787 205.728 388.925 263.16 382.614C319.502 376.433 375.345 378.69 430.96 389.793C485.466 400.681 538.066 418.409 589.938 438.16C639.097 456.884 688.433 476.978 740.437 486.27C793.458 495.759 846.358 489.916 897.803 475.05C1008.27 443.14 1111.05 386.059 1206.53 322.996C1255.63 290.559 1303 255.574 1351.84 222.754C1396.62 192.659 1442.84 163.084 1492.96 142.637C1503.81 138.21 1514.84 134.319 1526.08 131.03C1527.83 130.531 1527.1 127.804 1525.36 128.298Z" fill="url(#paint8_linear_5219_32319)"/>
<path d="M1523.71 116.57C1476.55 136.53 1433.45 165.296 1391.82 194.811C1343.93 228.767 1297.7 264.965 1250.09 299.313C1154.42 368.317 1051.21 428.234 937.779 462.56C883.51 478.986 826.547 488.52 769.958 480.046C718.13 472.285 669.106 452.209 620.652 433.063C520.217 393.377 415.685 362.433 306.649 376.534C249.803 383.887 193.992 399.953 138.861 415.178C82.2999 430.787 26.1359 447.824 -29.5835 466.248C-43.9752 471.01 -58.3276 475.865 -72.6582 480.801C-74.3691 481.391 -73.6519 484.122 -71.9273 483.528C-15.4216 464.061 41.5695 445.969 98.9935 429.384C153.99 413.493 209.453 397.71 265.58 386.311C322.096 374.837 378.742 372.624 435.811 381.306C490.275 389.588 542.866 405.916 594.167 425.717C643.757 444.852 692.857 466.573 744.909 478.221C797.115 489.901 850.043 487.325 901.915 475.195C1014.68 448.809 1119.26 392.606 1214.36 327.861C1263.42 294.468 1310.25 257.949 1358.04 222.793C1401.37 190.906 1445.46 159.186 1493.22 134.168C1503.65 128.697 1514.3 123.637 1525.16 119.046C1526.8 118.299 1525.36 115.864 1523.71 116.57Z" fill="url(#paint9_linear_5219_32319)"/>
<path d="M1522.4 104.67C1478.15 129.596 1437.59 160.693 1397.81 192.11C1350.58 229.41 1304.46 268.169 1256.32 304.323C1162.07 375.126 1058.16 434.733 943.237 464.021C888.386 478.002 831.189 484.046 775.202 473.131C723.048 462.957 674.141 440.921 625.221 420.905C573.665 399.827 521.234 381.805 466.028 373.209C413.55 365.037 360.647 365.472 308.664 376.697C251.049 389.138 195.325 411.086 140.145 431.411C84.42 451.941 29.0942 473.577 -25.7649 496.302C-38.8963 501.735 -51.9921 507.247 -65.0769 512.8C-66.7413 513.509 -65.3004 515.944 -63.6496 515.238C-7.68626 491.458 48.7375 468.796 105.619 447.299C160.576 426.521 215.885 405.255 272.344 388.884C327.094 373.001 382.751 366.77 439.542 372.617C495.894 378.406 550.276 394.225 602.841 414.93C652.469 434.478 701.102 457.509 752.887 470.939C804.249 484.263 856.928 484.195 908.917 474.518C1022.98 453.295 1128.47 398.396 1222.69 332.251C1315.61 267.008 1398.01 187.291 1493.4 125.538C1503.36 119.099 1513.49 112.935 1523.83 107.109C1525.4 106.22 1523.99 103.777 1522.4 104.67Z" fill="url(#paint10_linear_5219_32319)"/>
<path d="M1521.09 92.782C1429.88 157.932 1351.7 239.63 1263.53 308.657C1170.04 381.859 1064.48 441.616 947.238 465.706C891.393 477.176 833.633 479.482 777.985 465.64C724.963 452.44 675.685 427.93 625.496 406.939C576.065 386.271 525.243 370.113 471.885 363.726C417.066 357.175 362.338 361.315 309.503 377.533C253.945 394.598 201.073 420.869 148.413 445.153C93.1154 470.655 38.198 496.976 -16.3011 524.151C-29.9429 530.949 -43.5664 537.815 -57.1654 544.719C-58.7833 545.547 -57.3596 547.972 -55.738 547.157C-1.02355 519.37 54.1155 492.404 109.646 466.299C163.934 440.789 218.36 414.38 274.35 392.77C328.621 371.826 384.639 360.894 442.896 364.039C499.033 367.064 553.561 381.25 605.688 401.897C655.872 421.779 704.278 446.522 755.982 462.429C807.142 478.161 860.067 481.462 913.028 474.376C1028.31 458.965 1135 405.806 1228.54 338.467C1321.46 271.573 1401.59 189.22 1491.46 118.554C1501.65 110.546 1511.99 102.748 1522.54 95.2135C1523.98 94.169 1522.57 91.7266 1521.09 92.782Z" fill="url(#paint11_linear_5219_32319)"/>
<path d="M1519.49 81.1217C1433.19 156.841 1356.91 243.323 1267.5 315.635C1175.14 390.345 1068.38 449.166 949.802 467.374C893.31 476.05 835.507 474.436 780.565 457.832C727.91 441.917 679.208 415.63 628.763 394.123C578.732 372.797 526.705 357.59 472.258 353.732C416.187 349.753 361.144 358.333 309 379.366C253.931 401.577 202.316 432.758 150.562 461.623C96.7651 491.635 43.2613 522.196 -9.87627 553.362C-23.027 561.066 -36.1495 568.822 -49.2511 576.6C-50.8125 577.53 -49.3851 579.969 -47.8237 579.039C5.49037 547.388 59.1533 516.33 113.148 485.856C165.787 456.155 218.314 425.489 272.586 398.829C326.986 372.105 383.92 355.432 444.855 355.549C501.805 355.667 557.572 368.483 610.315 389.521C661.211 409.826 709.54 436.3 761.3 454.487C812.88 472.605 866.739 478.682 921.132 473.726C1037.1 463.147 1144.34 411.609 1236.91 342.923C1329.99 273.865 1408.16 187.856 1492.74 109.165C1502.22 100.354 1511.79 91.6503 1521.52 83.1225C1522.87 81.9116 1520.87 79.9209 1519.49 81.1217Z" fill="url(#paint12_linear_5219_32319)"/>
<path d="M1518.19 69.2426C1438.05 153.72 1364.34 244.686 1274.95 319.902C1181.49 398.548 1070.23 458.181 946.973 469.192C890.658 474.225 834.125 468.192 780.838 448.937C727.533 429.673 678.4 400.798 626.26 378.795C576.492 357.793 523.975 344.793 469.791 344.095C414.548 343.373 361.279 356.01 311.744 380.348C256.97 407.26 206.521 443.391 155.605 476.797C102.814 511.436 50.2614 546.421 -2.02411 581.801C-15.1377 590.68 -28.244 599.586 -41.3293 608.515C-42.8243 609.529 -41.4069 611.985 -39.902 610.954C12.9468 574.896 66.0797 539.244 119.458 503.965C170.868 470.003 221.913 434.896 274.99 403.557C326.505 373.148 381.349 351.567 441.48 347.646C498.224 343.946 554.95 354.02 607.897 374.404C659.753 394.363 707.959 422.449 759.287 443.603C810.908 464.868 865.047 475.313 920.908 473.604C1039.59 469.956 1150.11 419.716 1243.52 348.687C1337.42 277.277 1413.83 186.711 1493.2 100.219C1502.13 90.4888 1511.12 80.8156 1520.21 71.247C1521.45 69.9044 1519.44 67.9137 1518.19 69.2426Z" fill="url(#paint13_linear_5219_32319)"/>
<path d="M1516.89 57.3367C1442.21 150.405 1370.78 247.368 1280.25 326.004C1187.8 406.339 1075.25 464.735 951.037 469.749C892.952 472.098 835.449 462.232 781.802 439.727C730.313 418.134 682.649 388.529 631.318 366.602C580.728 344.987 526.885 333.088 471.739 334.957C414.626 336.9 360.804 354.07 311.721 383.038C257.27 415.184 207.77 456.221 157.44 494.322C106.6 532.81 55.9176 571.503 5.40995 610.413C-7.5412 620.388 -20.4751 630.373 -33.4016 640.385C-34.8166 641.481 -33.4128 643.94 -31.9743 642.824C19.4725 603.005 71.1013 563.429 122.888 524.06C173.218 485.797 223.023 446.389 274.895 410.227C325.516 374.956 380.276 347.668 442.11 340.075C499.591 333.02 557.999 341.196 612.01 361.791C664.706 381.891 712.91 411.659 764.115 435.023C814.689 458.104 867.937 471.492 923.614 472.799C1043.5 475.611 1156.01 427.499 1249.5 354.928C1344.24 281.377 1418.53 186.058 1492.44 92.5817C1501.23 81.47 1510.03 70.3719 1518.9 59.3274C1520.03 57.9285 1518.03 55.9205 1516.89 57.3367Z" fill="url(#paint14_linear_5219_32319)"/>
<path d="M1515.37 45.7358C1446.11 146.591 1377.45 249.992 1285.69 332.158C1193.13 415.05 1077.91 472.042 951.587 470.107C892.249 469.197 834.828 455.055 781.337 429.482C730.658 405.246 683.43 374.164 631.537 352.373C579.809 330.654 523.981 321.041 468.011 326.595C409.591 332.382 356.414 355.006 308.611 388.587C256.666 425.075 209.728 469.08 161.688 510.442C111.473 553.658 61.338 596.956 11.273 640.351C-1.0774 651.043 -13.4205 661.761 -25.7736 672.497C-27.1493 673.684 -25.1275 675.671 -23.7654 674.488C26.3248 630.968 76.516 587.553 126.777 544.237C176.135 501.689 224.799 458.025 275.554 417.149C324.857 377.451 378.784 344.817 441.76 333.147C500.23 322.318 560.873 328.375 616.434 349.359C670.274 369.694 718.676 401.454 769.984 427.057C820.026 452.02 872.998 468.084 928.927 471.969C988.697 476.126 1049.27 467.438 1105.57 446.987C1161.08 426.838 1212.17 395.942 1258.19 359.141C1353.29 283.067 1424.71 182.847 1493.08 83.226C1501.33 71.2054 1509.55 59.1647 1517.81 47.1441C1518.84 45.6407 1516.39 44.2361 1515.37 45.7358Z" fill="url(#paint15_linear_5219_32319)"/>
<path d="M1514.05 33.8463C1449.86 142.101 1384.36 252.545 1290.95 338.56C1245.12 380.776 1192.93 416.847 1135.12 440.538C1079.3 463.419 1018.92 473.632 958.67 470.336C897.97 467.013 839.956 449.624 786.226 421.469C735.252 394.768 687.725 361.428 634.43 339.253C582.681 317.729 526.487 310.129 470.954 318.08C411.528 326.592 358.642 353.247 311.938 390.333C260.465 431.197 214.677 479.601 167.486 525.223C117.906 573.151 68.3256 621.08 18.7452 669.009C6.54354 680.801 -5.65808 692.592 -17.8597 704.383C-19.1553 705.652 -17.1607 707.646 -15.8515 706.374C33.7289 658.445 83.3093 610.517 132.89 562.588C181.588 515.509 229.39 467.209 279.559 421.696C326.709 378.92 378.856 342.203 441.447 326.703C500.189 312.147 562.569 315.473 619.391 336.368C674.77 356.728 723.58 390.719 775.138 418.725C825.549 446.102 879.076 465 936.296 471.302C994.239 477.689 1053.5 471.648 1108.84 453.282C1164.87 434.672 1216.38 404.191 1262.18 367.158C1359.69 288.317 1428.82 181.854 1492.64 75.3837C1500.63 62.0455 1508.58 48.66 1516.51 35.2782C1517.43 33.7013 1514.99 32.2793 1514.05 33.8463Z" fill="url(#paint16_linear_5219_32319)"/>
</g>
<defs>
<linearGradient id="paint0_linear_5219_32319" x1="781.709" y1="528.613" x2="636.291" y2="-14.0939" gradientUnits="userSpaceOnUse">
<stop stop-color="#530490"/>
<stop offset="1" stop-color="#36D9FF"/>
</linearGradient>
<linearGradient id="paint1_linear_5219_32319" x1="780.911" y1="523.642" x2="645.26" y2="17.385" gradientUnits="userSpaceOnUse">
<stop stop-color="#530490"/>
<stop offset="1" stop-color="#36D9FF"/>
</linearGradient>
<linearGradient id="paint2_linear_5219_32319" x1="780.332" y1="519.089" x2="654.334" y2="48.8591" gradientUnits="userSpaceOnUse">
<stop stop-color="#530490"/>
<stop offset="1" stop-color="#36D9FF"/>
</linearGradient>
<linearGradient id="paint3_linear_5219_32319" x1="779.985" y1="515.126" x2="663.502" y2="80.4066" gradientUnits="userSpaceOnUse">
<stop stop-color="#530490"/>
<stop offset="1" stop-color="#36D9FF"/>
</linearGradient>
<linearGradient id="paint4_linear_5219_32319" x1="779.717" y1="511.769" x2="672.6" y2="112.005" gradientUnits="userSpaceOnUse">
<stop stop-color="#530490"/>
<stop offset="1" stop-color="#36D9FF"/>
</linearGradient>
<linearGradient id="paint5_linear_5219_32319" x1="779.579" y1="509.13" x2="681.651" y2="143.657" gradientUnits="userSpaceOnUse">
<stop stop-color="#530490"/>
<stop offset="1" stop-color="#36D9FF"/>
</linearGradient>
<linearGradient id="paint6_linear_5219_32319" x1="779.62" y1="506.89" x2="690.672" y2="174.934" gradientUnits="userSpaceOnUse">
<stop stop-color="#530490"/>
<stop offset="1" stop-color="#36D9FF"/>
</linearGradient>
<linearGradient id="paint7_linear_5219_32319" x1="779.969" y1="505.842" x2="699.762" y2="206.505" gradientUnits="userSpaceOnUse">
<stop stop-color="#530490"/>
<stop offset="1" stop-color="#36D9FF"/>
</linearGradient>
<linearGradient id="paint8_linear_5219_32319" x1="780.596" y1="505.832" x2="708.853" y2="238.082" gradientUnits="userSpaceOnUse">
<stop stop-color="#530490"/>
<stop offset="1" stop-color="#36D9FF"/>
</linearGradient>
<linearGradient id="paint9_linear_5219_32319" x1="781.546" y1="506.96" x2="715.702" y2="261.226" gradientUnits="userSpaceOnUse">
<stop stop-color="#530490"/>
<stop offset="1" stop-color="#36D9FF"/>
</linearGradient>
<linearGradient id="paint10_linear_5219_32319" x1="782.762" y1="509.267" x2="717.892" y2="267.168" gradientUnits="userSpaceOnUse">
<stop stop-color="#530490"/>
<stop offset="1" stop-color="#36D9FF"/>
</linearGradient>
<linearGradient id="paint11_linear_5219_32319" x1="784.272" y1="512.632" x2="718.799" y2="268.282" gradientUnits="userSpaceOnUse">
<stop stop-color="#530490"/>
<stop offset="1" stop-color="#36D9FF"/>
</linearGradient>
<linearGradient id="paint12_linear_5219_32319" x1="786.074" y1="516.782" x2="719.16" y2="267.056" gradientUnits="userSpaceOnUse">
<stop stop-color="#530490"/>
<stop offset="1" stop-color="#36D9FF"/>
</linearGradient>
<linearGradient id="paint13_linear_5219_32319" x1="787.953" y1="521.502" x2="719.051" y2="264.356" gradientUnits="userSpaceOnUse">
<stop stop-color="#530490"/>
<stop offset="1" stop-color="#36D9FF"/>
</linearGradient>
<linearGradient id="paint14_linear_5219_32319" x1="789.936" y1="526.599" x2="718.654" y2="260.57" gradientUnits="userSpaceOnUse">
<stop stop-color="#530490"/>
<stop offset="1" stop-color="#36D9FF"/>
</linearGradient>
<linearGradient id="paint15_linear_5219_32319" x1="792.016" y1="531.979" x2="718.044" y2="255.911" gradientUnits="userSpaceOnUse">
<stop stop-color="#530490"/>
<stop offset="1" stop-color="#36D9FF"/>
</linearGradient>
<linearGradient id="paint16_linear_5219_32319" x1="794.139" y1="537.596" x2="716.556" y2="248.051" gradientUnits="userSpaceOnUse">
<stop stop-color="#530490"/>
<stop offset="1" stop-color="#36D9FF"/>
</linearGradient>
</defs>
</svg>
