<svg width="51" height="53" viewBox="0 0 51 53" fill="none" xmlns="http://www.w3.org/2000/svg">
<path fill-rule="evenodd" clip-rule="evenodd" d="M19.0866 18.8494C20.5099 19.0559 21.8985 18.2542 22.4313 16.9183C24.2663 12.3721 28.2138 2.58929 28.2138 2.58929C28.529 1.79672 29.2641 1.45264 30.1327 1.67425C31.0012 1.89585 31.8959 2.66473 32.4943 3.70111L49.0882 32.4427C49.6866 33.4791 49.9051 34.6384 49.6627 35.5013C49.4204 36.3643 48.7669 36.8219 47.9108 36.7056C47.9108 36.7056 37.4649 35.2328 32.6104 34.5489C31.187 34.3423 29.7984 35.144 29.2656 36.48C27.4306 41.0261 23.4832 50.8089 23.4832 50.8089C23.1559 51.6085 22.4328 51.9456 21.5643 51.724C20.6957 51.5024 19.801 50.7335 19.2027 49.6971L2.60871 20.9555C2.01035 19.9192 1.79184 18.7599 2.03419 17.8969C2.27655 17.0339 2.93003 16.5763 3.78609 16.6926C3.78098 16.7116 14.239 18.1775 19.0866 18.8494Z" fill="#00728D"/>
</svg>
