<svg width="59" height="59" viewBox="0 0 59 59" fill="none" xmlns="http://www.w3.org/2000/svg">
<g opacity="0.6">
<path fill-rule="evenodd" clip-rule="evenodd" d="M17.5722 27.6738C16.6366 27.4231 15.6369 27.6048 14.8455 28.1708C14.0541 28.7368 13.5571 29.6238 13.5043 30.5952C12.9383 39.6766 18.7989 48.1978 27.9297 50.6444C37.0444 53.0867 46.3966 48.6418 50.431 40.4897C50.8549 39.6177 50.8679 38.601 50.4817 37.7195C50.0793 36.8336 49.3044 36.1764 48.3687 35.9257C41.206 34.0064 24.735 29.593 17.5722 27.6738ZM10.9519 22.8913C10.0163 22.6406 9.24136 21.9834 8.83898 21.0975C8.43661 20.2116 8.44966 19.195 8.88964 18.3273C12.9198 10.1914 22.2719 5.74647 31.3866 8.18876C40.5013 10.631 46.3781 19.1565 45.8121 28.238C45.7431 29.2051 45.2461 30.092 44.4708 30.6624C43.6794 31.2284 42.6798 31.4101 41.7441 31.1594C34.5857 29.224 18.1146 24.8106 10.9519 22.8913Z" fill="#36D9FF"/>
</g>
</svg>
