<svg width="160" height="161" viewBox="0 0 160 161" fill="none" xmlns="http://www.w3.org/2000/svg">
<path d="M126.484 73.9686C126.437 74.8589 126.234 75.7048 125.902 76.4797L125.702 76.9108L125.188 78.0219L124.724 79.0248L116.652 96.4545L116.603 96.5582L116.594 96.5789C116.493 96.8234 116.431 97.0871 116.416 97.3656C116.413 97.4086 116.413 97.45 116.413 97.493V107.36H116.412C116.412 107.46 116.41 107.563 116.404 107.665C116.388 107.964 116.35 108.257 116.289 108.542C115.904 110.361 114.65 111.843 113 112.572C112.197 112.926 111.298 113.102 110.362 113.052C109.607 113.012 108.895 112.828 108.249 112.53C106.807 111.866 105.699 110.629 105.202 109.132C105.042 108.647 104.945 108.134 104.923 107.604V97.0515C104.923 96.7123 104.932 96.3715 104.95 96.0278C104.984 95.3863 105.049 94.7552 105.145 94.133C105.402 92.4663 105.874 90.8752 106.532 89.3863L106.796 88.8204L110.889 79.9819L110.886 79.9804C110.999 79.7463 111.067 79.4856 111.082 79.21C111.139 78.1389 110.363 77.2145 109.316 77.056L109.212 77.0426H109.21L108.57 76.9611L68.9556 71.9049L60.8371 70.8693L60.7437 70.8574C57.0267 70.3656 54.163 67.3834 53.8015 63.7315C53.6934 62.5878 53.6385 61.4293 53.6385 60.2604C53.6385 39.89 70.1526 23.3774 90.523 23.3774C107.523 23.3774 121.837 34.8782 126.107 50.5241C126.196 50.85 126.28 51.1774 126.36 51.5063C126.416 51.8337 126.446 52.1715 126.446 52.5167C126.446 55.8189 123.769 58.4974 120.465 58.4974C117.693 58.4974 115.36 56.6086 114.683 54.0486C114.667 53.9789 114.649 53.9093 114.631 53.8411C111.926 43.1004 102.2 35.1493 90.6208 35.1493C78.2 35.1493 67.9141 44.296 66.1348 56.2234C66.123 56.2945 66.1126 56.3656 66.1023 56.4382C66.0963 56.4856 66.0889 56.533 66.083 56.5819C66.0785 56.6278 66.0756 56.6737 66.0726 56.7197C66.0015 58.0574 66.8963 59.2234 68.1526 59.5552L68.8874 59.6486L69.1511 59.6826L114.748 65.5019L119.896 66.1582L119.962 66.1671C122.674 66.5241 124.902 68.3019 125.911 70.6871C126.336 71.693 126.545 72.8071 126.484 73.9686Z" fill="white"/>
<path d="M92.8652 16.4159C92.8548 16.6173 92.6815 16.7729 92.4785 16.761C91.7763 16.7314 91.0696 16.7166 90.36 16.7166C62.9837 16.7166 40.7897 38.9107 40.7897 66.287C40.7897 87.0233 53.52 104.786 71.5941 112.183C71.7304 112.243 71.8222 112.38 71.8119 112.536C71.8015 112.737 71.6282 112.893 71.4252 112.881C71.4134 112.881 71.4015 112.88 71.3897 112.878C71.3897 112.878 71.3896 112.878 71.3882 112.878C71.3689 112.874 71.3497 112.869 71.3304 112.865C71.3274 112.863 71.323 112.862 71.3185 112.86C49.6622 107.552 33.5956 88.0114 33.5956 64.7181C33.5956 37.3418 55.7896 15.1477 83.1659 15.1477C86.3748 15.1477 89.5141 15.4544 92.5526 16.0366C92.7304 16.0618 92.8652 16.2351 92.8652 16.4159Z" fill="white"/>
<path d="M82.6311 126.053C81.1496 126.053 79.757 125.137 79.2207 123.665C78.5348 121.782 79.5066 119.699 81.3896 119.014L98.2177 112.89C100.101 112.204 102.184 113.176 102.868 115.059C103.554 116.942 102.582 119.025 100.699 119.709L83.8711 125.834C83.4622 125.983 83.0429 126.053 82.6311 126.053Z" fill="white"/>
<path d="M91.3541 145.623C89.8726 145.623 88.48 144.708 87.9437 143.235C87.2578 141.352 88.2297 139.269 90.1126 138.585L106.941 132.46C108.824 131.774 110.907 132.746 111.591 134.629C112.277 136.512 111.305 138.595 109.422 139.279L92.5941 145.404C92.1852 145.552 91.766 145.623 91.3541 145.623Z" fill="white"/>
<path d="M84.5022 136.73C83.0207 136.73 81.6281 135.814 81.0918 134.342C80.4059 132.459 81.3777 130.376 83.2607 129.691L108.852 120.377C110.735 119.691 112.818 120.663 113.502 122.546C114.188 124.429 113.216 126.512 111.333 127.196L85.7422 136.511C85.3333 136.659 84.914 136.73 84.5022 136.73Z" fill="white"/>
</svg>
