<svg width="160" height="160" viewBox="0 0 160 160" fill="none" xmlns="http://www.w3.org/2000/svg">
<path d="M126.485 73.5872C126.437 74.4776 126.234 75.3235 125.902 76.0983L125.702 76.5294L125.188 77.6405L124.725 78.6435L116.652 96.0731L116.603 96.1768L116.594 96.1976C116.493 96.442 116.431 96.7057 116.416 96.9842C116.413 97.0272 116.413 97.0687 116.413 97.1116V106.978H116.412C116.412 107.079 116.411 107.181 116.405 107.284C116.388 107.583 116.35 107.876 116.289 108.161C115.904 109.98 114.651 111.461 113 112.19C112.197 112.544 111.298 112.721 110.362 112.67C109.608 112.63 108.895 112.446 108.249 112.149C106.808 111.485 105.699 110.248 105.202 108.75C105.042 108.266 104.945 107.753 104.923 107.223V96.6702C104.923 96.3309 104.932 95.9902 104.95 95.6465C104.984 95.005 105.049 94.3739 105.145 93.7516C105.402 92.085 105.874 90.4939 106.532 89.005L106.796 88.4391L110.889 79.6005L110.886 79.5991C110.999 79.365 111.067 79.1042 111.082 78.8287C111.139 77.7576 110.363 76.8331 109.316 76.6746L109.212 76.6613H109.211L108.571 76.5798L68.9557 71.5235L60.8372 70.4879L60.7439 70.4761C57.0268 69.9842 54.1631 67.002 53.8016 63.3502C53.6935 62.2065 53.6387 61.0479 53.6387 59.8791C53.6387 39.5087 70.1528 22.9961 90.5231 22.9961C107.523 22.9961 121.837 34.4968 126.107 50.1428C126.196 50.4687 126.28 50.7961 126.36 51.125C126.416 51.4524 126.446 51.7902 126.446 52.1354C126.446 55.4376 123.769 58.1161 120.465 58.1161C117.693 58.1161 115.36 56.2272 114.683 53.6672C114.667 53.5976 114.649 53.5279 114.631 53.4598C111.926 42.7191 102.2 34.7679 90.6209 34.7679C78.2002 34.7679 67.9142 43.9146 66.135 55.842C66.1231 55.9131 66.1127 55.9842 66.1024 56.0568C66.0964 56.1042 66.089 56.1516 66.0831 56.2005C66.0787 56.2465 66.0757 56.2924 66.0727 56.3383C66.0016 57.6761 66.8964 58.842 68.1527 59.1739L68.8876 59.2672L69.1513 59.3013L114.748 65.1205L119.896 65.7768L119.962 65.7857C122.674 66.1428 124.902 67.9205 125.911 70.3057C126.336 71.3117 126.545 72.4257 126.485 73.5872Z" fill="white"/>
<path d="M92.8653 16.0338C92.855 16.2353 92.6816 16.3908 92.4787 16.379C91.7764 16.3493 91.0698 16.3345 90.3601 16.3345C62.9838 16.3345 40.7898 38.5286 40.7898 65.9049C40.7898 86.6412 53.5201 104.404 71.5942 111.801C71.7305 111.86 71.8224 111.998 71.812 112.154C71.8016 112.355 71.6283 112.511 71.4253 112.499C71.4135 112.499 71.4016 112.497 71.3898 112.496C71.3898 112.496 71.3898 112.496 71.3883 112.496C71.369 112.492 71.3498 112.487 71.3305 112.483C71.3276 112.481 71.3231 112.48 71.3187 112.478C49.6624 107.17 33.5957 87.6293 33.5957 64.336C33.5957 36.9597 55.7898 14.7656 83.1661 14.7656C86.375 14.7656 89.5142 15.0723 92.5527 15.6545C92.7305 15.6797 92.8653 15.853 92.8653 16.0338Z" fill="white"/>
<path d="M82.6313 125.672C81.1498 125.672 79.7573 124.756 79.221 123.284C78.535 121.401 79.5069 119.318 81.3898 118.633L98.218 112.509C100.101 111.823 102.184 112.795 102.868 114.678C103.554 116.561 102.582 118.644 100.699 119.328L83.8713 125.453C83.4624 125.602 83.0432 125.672 82.6313 125.672Z" fill="white"/>
<path d="M91.3542 145.242C89.8727 145.242 88.4802 144.327 87.9439 142.854C87.2579 140.971 88.2298 138.888 90.1127 138.204L106.941 132.079C108.824 131.393 110.907 132.365 111.591 134.248C112.277 136.131 111.305 138.214 109.422 138.899L92.5942 145.023C92.1853 145.171 91.7661 145.242 91.3542 145.242Z" fill="white"/>
<path d="M84.5024 136.346C83.0209 136.346 81.6283 135.43 81.092 133.958C80.4061 132.075 81.378 129.992 83.2609 129.307L108.852 119.993C110.735 119.307 112.818 120.279 113.502 122.162C114.188 124.045 113.216 126.128 111.334 126.813L85.7424 136.127C85.3335 136.275 84.9143 136.346 84.5024 136.346Z" fill="white"/>
</svg>
