<svg width="28" height="28" viewBox="0 0 28 28" fill="none" xmlns="http://www.w3.org/2000/svg">
<path d="M25.6668 18.887C25.6668 23.1337 23.1352 25.6654 18.8885 25.6654H17.5002C16.8585 25.6654 16.3335 25.1404 16.3335 24.4987V17.767C16.3335 17.452 16.5902 17.1837 16.9052 17.1837L18.9585 17.1487C19.1218 17.137 19.2618 17.0204 19.2968 16.857L19.7052 14.6287C19.7402 14.4187 19.5768 14.2204 19.3552 14.2204L16.8702 14.2554C16.5435 14.2554 16.2868 13.9987 16.2752 13.6837L16.2285 10.8254C16.2285 10.6387 16.3802 10.4754 16.5785 10.4754L19.3785 10.4287C19.5768 10.4287 19.7285 10.277 19.7285 10.0787L19.6818 7.27869C19.6818 7.08035 19.5302 6.9287 19.3318 6.9287L16.1818 6.97538C14.2452 7.01038 12.7052 8.59703 12.7402 10.5337L12.7985 13.742C12.8102 14.0687 12.5535 14.3254 12.2268 14.337L10.8268 14.3604C10.6285 14.3604 10.4768 14.512 10.4768 14.7103L10.5118 16.927C10.5118 17.1254 10.6635 17.277 10.8618 17.277L12.2618 17.2537C12.5885 17.2537 12.8451 17.5104 12.8568 17.8254L12.9618 24.4754C12.9735 25.1287 12.4485 25.6654 11.7951 25.6654H9.11183C4.86516 25.6654 2.3335 23.1337 2.3335 18.8754V9.11036C2.3335 4.86369 4.86516 2.33203 9.11183 2.33203H18.8885C23.1352 2.33203 25.6668 4.86369 25.6668 9.11036V18.887Z" fill="#D9F8FF"/>
</svg>
