<svg width="28" height="28" viewBox="0 0 28 28" fill="none" xmlns="http://www.w3.org/2000/svg">
<path d="M18.8885 2.33203H9.11183C4.86516 2.33203 2.3335 4.8637 2.3335 9.11036V18.8754C2.3335 23.1337 4.86516 25.6654 9.11183 25.6654H18.8768C23.1235 25.6654 25.6552 23.1337 25.6552 18.887V9.11036C25.6668 4.8637 23.1352 2.33203 18.8885 2.33203ZM14.0002 18.5254C11.5035 18.5254 9.4735 16.4954 9.4735 13.9987C9.4735 11.502 11.5035 9.47203 14.0002 9.47203C16.4968 9.47203 18.5268 11.502 18.5268 13.9987C18.5268 16.4954 16.4968 18.5254 14.0002 18.5254ZM20.9068 8.02536C20.8485 8.16536 20.7668 8.2937 20.6618 8.41036C20.5452 8.51536 20.4168 8.59703 20.2768 8.65536C20.1368 8.7137 19.9852 8.7487 19.8335 8.7487C19.5185 8.7487 19.2268 8.63203 19.0052 8.41036C18.9002 8.2937 18.8185 8.16536 18.7602 8.02536C18.7018 7.88536 18.6668 7.7337 18.6668 7.58203C18.6668 7.43036 18.7018 7.2787 18.7602 7.1387C18.8185 6.98703 18.9002 6.87036 19.0052 6.7537C19.2735 6.48536 19.6818 6.35703 20.0552 6.4387C20.1368 6.45036 20.2068 6.4737 20.2768 6.5087C20.3468 6.53203 20.4168 6.56703 20.4868 6.6137C20.5452 6.6487 20.6035 6.70703 20.6618 6.7537C20.7668 6.87036 20.8485 6.98703 20.9068 7.1387C20.9652 7.2787 21.0002 7.43036 21.0002 7.58203C21.0002 7.7337 20.9652 7.88536 20.9068 8.02536Z" fill="#D9F8FF"/>
</svg>
