<svg width="28" height="28" viewBox="0 0 28 28" fill="none" xmlns="http://www.w3.org/2000/svg">
<g clip-path="url(#clip0_5219_32336)">
<path fill-rule="evenodd" clip-rule="evenodd" d="M11.0007 10.4625H15.3337V12.6209C15.9578 11.3795 17.5585 10.2642 19.963 10.2642C24.5725 10.2642 25.6668 12.7352 25.6668 17.2689V25.6654H21.0002V18.3014C21.0002 15.7195 20.376 14.2635 18.787 14.2635C16.5832 14.2635 15.6673 15.8327 15.6673 18.3002V25.6654H11.0007V10.4625ZM2.9985 25.467H7.66516V10.2642H2.9985V25.467ZM8.33366 5.30703C8.33384 5.69819 8.25626 6.08547 8.10545 6.44638C7.95463 6.80729 7.73359 7.13463 7.45516 7.40937C6.89096 7.97009 6.12727 8.28396 5.33183 8.28203C4.53778 8.2815 3.77586 7.96843 3.21083 7.41053C2.93341 7.13486 2.71311 6.80716 2.56256 6.4462C2.41201 6.08524 2.33417 5.69813 2.3335 5.30703C2.3335 4.5172 2.6485 3.7612 3.212 3.20353C3.77653 2.64488 4.53878 2.33168 5.333 2.33203C6.12866 2.33203 6.89166 2.64586 7.45516 3.20353C8.0175 3.7612 8.33366 4.5172 8.33366 5.30703Z" fill="#D9F8FF"/>
</g>
<defs>
<clipPath id="clip0_5219_32336">
<rect width="28" height="28" fill="white"/>
</clipPath>
</defs>
</svg>
