<svg width="28" height="28" viewBox="0 0 28 28" fill="none" xmlns="http://www.w3.org/2000/svg">
<g clip-path="url(#clip0_5219_32338)">
<path d="M26.7307 7.09078C26.8367 6.95126 26.6865 6.76591 26.5222 6.8268C26.055 6.99992 25.5754 7.13705 25.0875 7.23705C24.9027 7.27495 24.8001 7.01294 24.9436 6.89036C25.5129 6.40405 25.9645 5.79228 26.2614 5.10151C26.3251 4.95335 26.1627 4.81948 26.0204 4.89519C25.2038 5.3294 24.3282 5.64442 23.4216 5.83289C23.3624 5.8452 23.3014 5.82518 23.2592 5.78184C22.5332 5.03543 21.5868 4.54021 20.5578 4.37006C19.4968 4.19462 18.4076 4.37462 17.4595 4.88207C16.5114 5.38953 15.7575 6.19601 15.315 7.17614C14.9045 8.08542 14.7833 9.0969 14.9648 10.0742C14.986 10.1887 14.8966 10.2961 14.7803 10.2883C12.921 10.1639 11.1051 9.66564 9.44154 8.82239C7.78408 7.98222 6.31337 6.81758 5.1163 5.39854C5.03741 5.30501 4.88919 5.31674 4.83321 5.42554C4.47868 6.11462 4.29341 6.87967 4.29451 7.65705C4.29451 9.12949 4.94769 10.4526 5.97942 11.3477C6.11225 11.463 6.03056 11.6882 5.85687 11.6607C5.31567 11.575 4.7915 11.3982 4.30702 11.1366C4.28354 11.124 4.25484 11.1409 4.25484 11.1675C4.2548 12.2944 4.64454 13.3866 5.35796 14.2588C5.91436 14.9391 6.64093 15.453 7.45775 15.7522C7.63106 15.8157 7.62651 16.0714 7.44313 16.0924C7.04877 16.1376 6.64982 16.1349 6.25508 16.0838C6.12334 16.0668 6.01438 16.1912 6.06255 16.315C6.39476 17.169 6.96147 17.9142 7.7 18.4632C8.38562 18.9728 9.19053 19.2919 10.0332 19.3927C10.1966 19.4122 10.2637 19.6251 10.1293 19.7201C9.21438 20.3673 8.19408 20.8533 7.11248 21.1558C6.11811 21.434 5.08757 21.5527 4.05913 21.509C3.87345 21.5011 3.79012 21.7498 3.95175 21.8416C6.02885 23.0205 8.38061 23.6426 10.7777 23.6404C19.754 23.6404 24.661 16.2052 24.661 9.75705C24.661 9.57859 24.6576 9.39846 24.6509 9.22021C24.6487 9.16133 24.6758 9.10518 24.7233 9.0702C25.4839 8.50916 26.1597 7.84204 26.7307 7.09078Z" fill="#D9F8FF"/>
</g>
<defs>
<clipPath id="clip0_5219_32338">
<rect width="28" height="28" fill="white"/>
</clipPath>
</defs>
</svg>
