<svg width="24" height="25" viewBox="0 0 24 25" fill="none" xmlns="http://www.w3.org/2000/svg">
<g clip-path="url(#clip0_5219_23635)">
<path d="M20.6201 8.75273C19.5701 4.13273 15.5401 2.05273 12.0001 2.05273C12.0001 2.05273 12.0001 2.05273 11.9901 2.05273C8.4601 2.05273 4.4201 4.12273 3.3701 8.74273C2.2001 13.9027 5.3601 18.2727 8.2201 21.0227C9.2801 22.0427 10.6401 22.5527 12.0001 22.5527C13.3601 22.5527 14.7201 22.0427 15.7701 21.0227C18.6301 18.2727 21.7901 13.9127 20.6201 8.75273ZM12.0001 13.7627C10.2601 13.7627 8.8501 12.3527 8.8501 10.6127C8.8501 8.87274 10.2601 7.46273 12.0001 7.46273C13.7401 7.46273 15.1501 8.87274 15.1501 10.6127C15.1501 12.3527 13.7401 13.7627 12.0001 13.7627Z" fill="#B0F0FF"/>
</g>
<defs>
<clipPath id="clip0_5219_23635">
<rect width="24" height="24" fill="white" transform="translate(0 0.302734)"/>
</clipPath>
</defs>
</svg>
