<svg width="107" height="79" viewBox="0 0 107 79" fill="none" xmlns="http://www.w3.org/2000/svg">
<path d="M19.7253 24.2929H19.7629C19.7629 21.0336 19.7665 17.7755 19.7617 14.5175C19.758 13.0294 19.752 11.5413 19.718 10.0532C19.701 9.32 19.4729 8.59289 18.7558 8.30979C17.2343 7.70729 15.9651 8.61951 15.9651 10.2358C15.9663 18.1808 15.9699 26.1246 15.9736 34.0696C15.9748 35.4573 15.976 36.8449 15.9857 38.2326C15.993 39.0735 16.4735 39.999 17.0304 40.1188C18.3542 40.4007 19.7641 40.1091 19.7423 38.2302C19.6889 33.5844 19.7253 28.9387 19.7253 24.2929ZM0.327416 39.5296C0.327416 30.1171 0.32863 20.7058 0.32499 11.2945C0.32499 9.54866 0.608914 7.85127 1.19739 6.21315C2.27727 3.2055 4.60205 1.76338 7.62451 1.24194C9.84495 0.859632 12.0896 0.999973 14.3259 0.989084C18.097 0.970937 21.8681 0.991504 25.6391 1.02054C27.1995 1.03264 28.7405 1.23347 30.1734 1.89525C33.2008 3.29503 34.6701 5.78366 35.0499 8.99335C35.13 9.67086 35.1312 10.3593 35.1324 11.0416C35.1397 23.4303 35.1373 35.8178 35.1555 48.2065C35.1567 48.7667 34.8266 48.642 34.527 48.642C29.0414 48.6457 23.5558 48.6445 18.069 48.6445C17.8883 48.6445 17.7063 48.6408 17.5255 48.6469C16.5657 48.6808 15.9894 49.2397 15.9687 50.2003C15.9493 51.1452 15.9651 52.0901 15.9651 53.035C15.9651 58.7466 15.9639 64.4582 15.9651 70.1698C15.9651 71.7704 17.5279 72.6742 18.9402 71.8842C19.5954 71.5176 19.7872 70.9042 19.7835 70.1977C19.7702 68.0659 19.7532 65.9354 19.7508 63.8037C19.7447 60.2444 19.758 56.6838 19.7386 53.1245C19.735 52.6272 19.809 52.4397 20.3817 52.4433C25.1016 52.4712 29.8216 52.4675 34.5403 52.4482C35.0499 52.4458 35.1858 52.5946 35.1822 53.0894C35.1421 58.5385 35.2258 63.9888 35.1118 69.4379C35.0693 71.4547 34.6471 73.3469 33.4483 75.0019C31.7787 77.3042 29.4236 78.3459 26.6462 78.4572C21.0636 78.6822 15.4749 78.6484 9.88863 78.5806C8.10015 78.5588 6.37961 78.1003 4.77071 77.3151C2.36221 76.138 1.18162 74.074 0.682929 71.543C0.283736 69.5165 0.322563 67.4622 0.322563 65.4128C0.323776 56.7842 0.323776 48.1569 0.323776 39.5296" fill="white"/>
<path d="M40.2186 28.8156C40.2186 22.8221 40.2174 16.8286 40.2198 10.8351C40.221 9.70631 40.3654 8.59206 40.6287 7.49232C41.4817 3.93298 43.8028 1.80851 47.4392 1.23626C49.7046 0.87936 51.9869 0.997924 54.2619 0.987036C57.9942 0.968888 61.7252 0.993085 65.4563 1.01728C66.8128 1.02575 68.1511 1.19634 69.4373 1.65244C72.5811 2.7667 74.6778 5.6703 74.8937 9.07357C75.0466 11.4848 75.0321 13.8972 75.0357 16.3096C75.0454 22.8064 75.0284 29.3032 75.043 35.7988C75.0442 36.2755 74.918 36.3868 74.4509 36.3844C69.6703 36.3662 64.8884 36.3662 60.1078 36.3844C59.6395 36.3856 59.5121 36.2743 59.5133 35.7952C59.5291 27.2876 59.5242 18.7801 59.5242 10.2725C59.5242 10.0318 59.5315 9.78737 59.5048 9.54903C59.4271 8.87516 59.0413 8.43962 58.3812 8.3029C57.7733 8.17587 57.174 8.25572 56.6037 8.48559C56.2057 8.6465 55.9642 8.95138 55.8599 9.37361C55.7871 9.67244 55.7871 9.97127 55.7871 10.2725C55.7871 19.5447 55.7871 28.8169 55.7871 38.089C55.7871 39.7005 56.304 40.2171 57.9165 40.2171C63.4033 40.2171 68.8901 40.2232 74.3769 40.2062C74.8683 40.205 75.049 40.2691 75.0466 40.8366C75.0187 50.1487 75.0248 59.4608 75.0078 68.7729C75.0042 71.0727 74.4751 73.2359 73.1101 75.1342C71.6674 77.1376 69.6703 78.2156 67.2254 78.3547C61.3819 78.6874 55.5299 78.6173 49.6815 78.5701C48.1199 78.5568 46.6069 78.1866 45.1618 77.5913C42.2922 76.4069 40.909 74.1058 40.3909 71.1804C40.204 70.1303 40.1567 69.0644 40.1579 67.9973C40.1603 63.0491 40.17 58.1021 40.1446 53.1539C40.1421 52.5453 40.3047 52.399 40.9126 52.4026C45.6738 52.4316 50.4338 52.4268 55.1938 52.4074C55.6803 52.405 55.7786 52.5429 55.7774 53.0027C55.7616 58.6949 55.7919 64.3872 55.7531 70.0783C55.741 71.9837 56.8864 72.262 58.5329 71.9995C59.1056 71.9087 59.4999 71.109 59.5012 70.2851C59.5072 66.8867 59.5121 63.4871 59.5145 60.0887C59.5157 56.8705 59.5157 53.6511 59.5145 50.4342C59.5133 49.0211 59.0425 48.5553 57.6253 48.5529C51.9978 48.5456 46.3703 48.5323 40.7427 48.5432C40.2635 48.5432 40.147 48.4138 40.1482 47.9431C40.164 41.5673 40.1591 35.1915 40.1591 28.8156" fill="white"/>
<path d="M95.4587 51.8744C95.4587 60.561 95.4527 69.2476 95.4721 77.9342C95.4733 78.4895 95.3265 78.6117 94.7866 78.6093C90.0678 78.5863 85.3491 78.59 80.6304 78.6057C80.1778 78.6069 80.0273 78.5198 80.0273 78.0274C80.0419 60.5743 80.0419 43.12 80.0273 25.667C80.0273 25.1988 80.1608 25.1165 80.5964 25.1177C85.3345 25.1334 90.0739 25.1358 94.8132 25.1153C95.3229 25.1129 95.4745 25.206 95.4733 25.7541C95.4527 34.46 95.4587 43.1672 95.4587 51.8744Z" fill="white"/>
<path d="M88.3537 0.867067C90.8144 0.867067 93.2739 0.862228 95.7333 0.868277C97.3908 0.871906 98.1491 1.62563 98.086 3.28674C97.9586 6.70331 98.0157 10.1199 98.029 13.5365C98.0339 14.6168 97.2343 15.5895 96.1544 15.6984C93.1076 16.0069 90.0585 16.2864 87.0093 16.5683C85.1432 16.7413 83.2795 16.9542 81.4097 17.0426C79.2912 17.1442 78.8738 16.6699 78.8447 14.5491C78.795 10.7913 78.7234 7.03238 78.6627 3.27464C78.6324 1.49739 79.2403 0.880375 81.036 0.876746C83.4748 0.873116 85.9149 0.876746 88.3537 0.876746" fill="#0060B4"/>
<path d="M87.2508 22.5745C86.9499 22.5636 86.6915 22.4559 86.4403 22.3252C84.4613 21.3005 82.4715 20.2939 80.4367 19.3805C80.3032 19.32 80.0727 19.3176 80.126 19.0913C80.1685 18.9087 80.3626 18.9897 80.4876 18.98C82.6668 18.7998 84.852 18.6667 87.0288 18.4707C87.8393 18.3981 88.321 18.3449 89.2699 18.2445C91.3216 18.0279 94.3866 17.7121 98.6527 17.3008C99.803 17.6758 100.724 18.0194 101.351 18.2638C103.589 19.1337 105.33 19.8475 105.713 19.9999C105.848 20.0532 106.098 20.0217 106.083 20.2358C106.065 20.4996 105.805 20.404 105.648 20.4246C101.437 20.9738 97.2112 21.3973 92.9924 21.8764C91.6323 22.03 89.6581 22.2623 87.2508 22.5745Z" fill="#0060B4"/>
</svg>
