<svg width="32" height="32" viewBox="0 0 32 32" fill="none" xmlns="http://www.w3.org/2000/svg">
<g clip-path="url(#clip0_5224_32746)">
<path fill-rule="evenodd" clip-rule="evenodd" d="M8.6259 8.62639C9.01643 8.23587 9.64959 8.23587 10.0401 8.62639L23.3734 21.9597C23.764 22.3502 23.764 22.9834 23.3734 23.3739C22.9829 23.7645 22.3498 23.7645 21.9592 23.3739L8.6259 10.0406C8.23538 9.65008 8.23538 9.01691 8.6259 8.62639Z" fill="white"/>
<path fill-rule="evenodd" clip-rule="evenodd" d="M23.3734 8.62639C23.764 9.01691 23.764 9.65008 23.3734 10.0406L10.0401 23.3739C9.64959 23.7645 9.01643 23.7645 8.6259 23.3739C8.23538 22.9834 8.23538 22.3502 8.6259 21.9597L21.9592 8.62639C22.3498 8.23587 22.9829 8.23587 23.3734 8.62639Z" fill="white"/>
</g>
<defs>
<clipPath id="clip0_5224_32746">
<rect width="32" height="32" fill="white"/>
</clipPath>
</defs>
</svg>
