<svg width="80" height="80" viewBox="0 0 80 80" fill="none" xmlns="http://www.w3.org/2000/svg">
<path d="M40.0003 6.6665C21.6337 6.6665 6.66699 21.6332 6.66699 39.9998C6.66699 58.3665 21.6337 73.3332 40.0003 73.3332C58.367 73.3332 73.3337 58.3665 73.3337 39.9998C73.3337 21.6332 58.367 6.6665 40.0003 6.6665ZM55.9337 32.3332L37.0337 51.2332C36.567 51.6998 35.9337 51.9665 35.267 51.9665C34.6003 51.9665 33.967 51.6998 33.5003 51.2332L24.067 41.7998C23.1003 40.8332 23.1003 39.2332 24.067 38.2665C25.0337 37.2998 26.6337 37.2998 27.6003 38.2665L35.267 45.9332L52.4003 28.7998C53.367 27.8332 54.967 27.8332 55.9337 28.7998C56.9003 29.7665 56.9003 31.3332 55.9337 32.3332Z" fill="#0EA5E9"/>
</svg>
