<svg width="158" height="52" viewBox="0 0 158 52" fill="none" xmlns="http://www.w3.org/2000/svg">
<path fill-rule="evenodd" clip-rule="evenodd" d="M51.6503 25.8C51.6503 40.0489 40.0992 51.6 25.8503 51.6C11.6013 51.6 0.050293 40.0489 0.050293 25.8C0.050293 11.5511 11.6013 0 25.8503 0C40.0992 0 51.6503 11.5511 51.6503 25.8ZM25.2501 33.8984C24.9501 33.8984 24.6501 33.7984 24.4501 33.6984C24.3334 33.6401 24.02 33.5023 23.5761 33.3071L23.5757 33.307C21.7372 32.4987 17.661 30.7066 16.0501 29.4984C12.4501 26.8984 10.3501 22.6984 10.3501 18.2984C10.3501 10.5984 16.5501 4.39844 24.2501 4.39844H25.8501C28.6501 4.39844 31.3501 4.99844 33.9501 5.99844L32.3501 9.69844C30.2501 8.79844 28.0501 8.39844 25.7501 8.39844H24.1501C18.7501 8.39844 14.2501 12.7984 14.2501 18.2984C14.2501 21.3984 15.8501 24.3984 18.3501 26.2984C19.7501 27.3984 24.1501 29.2984 25.8501 29.9984C26.6501 30.2984 27.2501 30.9984 27.2501 31.8984C27.2501 32.9984 26.3501 33.8984 25.2501 33.8984ZM26.8501 17.3992C27.6501 17.6992 34.0501 20.4992 36.1501 21.9992C39.7501 24.6992 41.8501 28.8992 41.8501 33.2992C41.8501 40.9992 35.6501 47.2992 27.9501 47.2992H25.8501C23.1501 47.2992 20.4501 46.6992 17.8501 45.6992L19.3501 41.9992C21.3501 42.8992 23.5501 43.2992 25.8501 43.2992H27.9501C33.3501 43.2992 37.8501 38.7992 37.8501 33.2992C37.8501 30.0992 36.3501 27.0992 33.7501 25.1992C32.4501 24.1992 27.8501 22.0992 25.2501 20.9992C24.5501 20.6992 24.0501 19.9992 24.0501 19.1992C24.0501 18.0992 24.9501 17.1992 26.0501 17.1992C26.3501 17.1992 26.6501 17.2992 26.8501 17.3992ZM25.1505 14.8984H25.8505C27.2505 14.8984 28.6505 15.1984 29.9505 15.6984L31.4505 11.9984C29.6505 11.2984 27.7505 10.8984 25.8505 10.8984H25.1505C20.2505 10.8984 16.7505 13.8984 16.7505 18.2984C16.7505 24.0984 22.5505 26.3984 24.4505 27.0984L26.4505 27.8984C31.0505 29.6984 31.5505 31.5984 31.5505 32.9984C31.5505 36.1984 28.1505 36.3984 27.1505 36.3984H25.8505C24.4505 36.3984 23.1505 36.0984 21.8505 35.5984L20.3505 39.2984C22.0505 39.9984 23.9505 40.2984 25.8505 40.2984H27.1505C32.0505 40.2984 35.5505 37.2984 35.5505 32.8984C35.5505 27.3079 30.1618 25.062 28.0711 24.1907C27.9928 24.158 27.9191 24.1273 27.8505 24.0984L25.8505 23.2984C21.2505 21.4984 20.7505 19.5984 20.7505 18.1984C20.7505 15.1984 24.1505 14.8984 25.1505 14.8984Z" fill="#A0A5A6"/>
<path d="M60.5501 33.3016C62.9501 34.9016 65.7501 35.7016 68.6501 35.7016C73.3501 35.7016 76.4501 33.4016 76.4501 29.7016C76.4501 25.9016 73.1501 24.7016 69.4501 23.9016C65.3501 23.0016 64.6501 22.4016 64.6501 21.1016C64.6501 19.9016 65.9501 19.1016 67.8501 19.1016C69.4501 19.1016 70.9501 19.5016 72.5501 20.5016C72.9501 20.7016 73.2501 20.8016 73.6501 20.8016C74.7501 20.8016 75.6501 20.0016 75.6501 19.0016C75.6501 18.2016 75.1501 17.7016 74.6501 17.4016C72.6501 16.2016 70.3501 15.6016 67.8501 15.6016C63.4501 15.6016 60.3501 18.0016 60.3501 21.4016C60.3501 25.0016 63.0501 26.3016 67.5501 27.3016C71.4501 28.1016 72.0501 28.8016 72.0501 30.0016C72.0501 31.3016 70.6501 32.1016 68.5501 32.1016C66.4501 32.1016 64.6501 31.5016 62.8501 30.2016L60.5501 33.3016Z" fill="#A0A5A6"/>
<path d="M91.7501 17.2031C91.2501 16.2031 90.4501 15.7031 89.2501 15.7031H89.0501C87.9501 15.7031 87.0501 16.2031 86.5501 17.2031L78.7501 32.8031L77.3501 35.6031H81.9501L84.2501 30.9031H94.1501L96.4501 35.6031H101.15L99.6501 32.7031L91.7501 17.2031ZM92.4501 27.4031H85.9501L89.2501 20.7031L92.4501 27.4031Z" fill="#A0A5A6"/>
<path d="M114.25 16H100.25C99.1505 16 98.2505 16.8 98.2505 17.8C98.2505 18.8 99.1505 19.6 100.25 19.6H105.05V35.6H109.35V19.6H114.25C115.35 19.6 116.25 18.8 116.25 17.8C116.25 16.8 115.35 16 114.25 16Z" fill="#A0A5A6"/>
<path d="M120.95 15.9023C119.75 15.9023 118.75 16.7023 118.75 17.8023V35.6023H123.05V17.8023C123.15 16.7023 122.15 15.9023 120.95 15.9023Z" fill="#A0A5A6"/>
<path d="M152.35 17.7023C152.05 16.7023 151.05 15.9023 149.95 15.9023C148.85 15.9023 147.95 16.5023 147.65 17.5023L142.15 28.1023L136.65 17.5023C136.25 16.6023 135.35 15.9023 134.35 15.9023C133.25 15.9023 132.25 16.7023 131.95 17.7023L126.55 35.6023H130.85L134.65 22.5023L139.95 33.0023C140.35 33.9023 141.25 34.5023 142.25 34.5023C143.25 34.5023 144.15 33.9023 144.55 33.0023L149.85 22.5023L153.65 35.6023H157.95L152.35 17.7023Z" fill="#A0A5A6"/>
</svg>
