<svg width="201" height="45" viewBox="0 0 201 45" fill="none" xmlns="http://www.w3.org/2000/svg">
<g clip-path="url(#clip0_6727_25270)">
<path d="M19.7598 44.6535C9.11595 44.6535 0.457764 35.544 0.457764 24.3479V15.3867H9.38027V24.3479C9.38027 30.625 14.0371 35.731 19.7619 35.731C25.4868 35.731 30.1436 30.625 30.1436 24.3479V15.4147H39.0661V24.3479C39.0661 35.544 30.4058 44.6535 19.7619 44.6535H19.7598Z" fill="#9FA4A5"/>
<path d="M4.91912 10.6376C7.6085 10.6376 9.78868 8.45738 9.78868 5.768C9.78868 3.07861 7.6085 0.898438 4.91912 0.898438C2.22974 0.898438 0.0495605 3.07861 0.0495605 5.768C0.0495605 8.45738 2.22974 10.6376 4.91912 10.6376Z" fill="#9FA4A5"/>
<path d="M43.94 1.33203H25.3149V10.2051H43.94V1.33203Z" fill="#9FA4A5"/>
<path d="M73.8604 31.9721H53.8406C53.9781 33.7665 54.5562 35.1354 55.5727 36.0853C56.5891 37.0351 57.8398 37.5079 59.3226 37.5079C61.5296 37.5079 63.064 36.5774 63.9257 34.7142H73.3403C72.8568 36.6118 71.9865 38.318 70.7272 39.8352C69.4679 41.3524 67.8905 42.5429 65.993 43.4046C64.0955 44.2664 61.9744 44.6983 59.6299 44.6983C56.8019 44.6983 54.2833 44.0945 52.0784 42.8867C49.8715 41.679 48.1458 39.9556 46.9059 37.7142C45.6638 35.4728 45.0427 32.8511 45.0427 29.8511C45.0427 26.8512 45.6552 24.2316 46.8801 21.988C48.1029 19.7467 49.8199 18.0232 52.0269 16.8155C54.2339 15.6078 56.7675 15.0039 59.6321 15.0039C62.4966 15.0039 64.9078 15.5906 67.0804 16.7618C69.253 17.9351 70.9507 19.607 72.1756 21.7796C73.3983 23.9522 74.0129 26.488 74.0129 29.3848C74.0129 30.2121 73.9614 31.0739 73.8582 31.9721H73.8604ZM64.9636 27.0575C64.9636 25.5403 64.4457 24.3347 63.4121 23.4365C62.3784 22.5403 61.0848 22.0912 59.5332 22.0912C57.9816 22.0912 56.7997 22.5231 55.7833 23.3849C54.7647 24.2466 54.1372 25.4715 53.8943 27.0575H64.9636Z" fill="#9FA4A5"/>
<path d="M95.7412 44.2829L90.2054 36.2651L85.5486 44.2829H75.9793L85.497 29.541L75.7192 15.418H85.6518L91.1875 23.3842L95.8443 15.418H105.414L95.7412 29.9536L105.674 44.2829H95.7412Z" fill="#9FA4A5"/>
<path d="M109.166 21.988C110.389 19.7467 112.097 18.0232 114.287 16.8155C116.477 15.6078 118.984 15.0039 121.812 15.0039C125.433 15.0039 128.459 15.9538 130.892 17.8491C133.322 19.7467 134.919 22.42 135.678 25.8669H126.263C125.47 23.6599 123.936 22.5575 121.66 22.5575C120.037 22.5575 118.746 23.1872 117.781 24.4465C116.816 25.7058 116.333 27.5066 116.333 29.8511C116.333 32.1956 116.816 33.9986 117.781 35.2579C118.746 36.5172 120.04 37.1469 121.66 37.1469C123.936 37.1469 125.47 36.0444 126.263 33.8375H135.678C134.919 37.2178 133.316 39.8717 130.866 41.8037C128.416 43.7356 125.399 44.7005 121.812 44.7005C118.984 44.7005 116.474 44.0966 114.287 42.8889C112.097 41.6812 110.389 39.9577 109.166 37.7163C107.941 35.475 107.328 32.8532 107.328 29.8533C107.328 26.8533 107.941 24.2337 109.166 21.9902V21.988Z" fill="#9FA4A5"/>
<path d="M150.92 35.8491C150.581 35.0691 150.063 34.4544 149.366 34.0075C148.67 33.5605 147.853 33.337 146.912 33.337C146.029 33.337 145.238 33.5411 144.535 33.9473C143.833 34.3556 143.278 34.9358 142.872 35.688C142.464 36.4401 142.262 37.3147 142.262 38.3118C142.262 39.309 142.466 40.1857 142.872 40.9443C143.28 41.7029 143.835 42.2853 144.535 42.6936C145.236 43.1019 146.029 43.3039 146.912 43.3039C147.737 43.3039 148.483 43.1255 149.145 42.7688C149.807 42.4121 150.34 41.9028 150.742 41.2409C151.144 40.579 151.373 39.8054 151.429 38.9243H146.437V37.9573H152.684V38.8233C152.628 39.8655 152.345 40.8068 151.836 41.6492C151.326 42.4916 150.645 43.1578 149.79 43.6434C148.934 44.1291 147.976 44.3741 146.912 44.3741C145.848 44.3741 144.819 44.1162 143.925 43.6026C143.031 43.0868 142.326 42.3691 141.813 41.4472C141.297 40.5253 141.041 39.4809 141.041 38.314C141.041 37.1471 141.299 36.1049 141.813 35.1808C142.328 34.2589 143.031 33.539 143.925 33.0254C144.819 32.5096 145.814 32.2539 146.912 32.2539C148.18 32.2539 149.289 32.5698 150.239 33.2038C151.189 33.8377 151.881 34.7209 152.31 35.8513H150.918L150.92 35.8491Z" fill="#9FA4A5"/>
<path d="M161.173 44.2533L158.235 39.2956H156.045V44.2533H154.857V32.3867H158.422C159.746 32.3867 160.749 32.7026 161.435 33.3366C162.12 33.9705 162.462 34.8022 162.462 35.8315C162.462 36.6911 162.215 37.4239 161.723 38.0299C161.231 38.6359 160.502 39.0292 159.542 39.2097L162.598 44.2512H161.171L161.173 44.2533ZM156.045 38.3265H158.439C159.368 38.3265 160.066 38.1008 160.537 37.6474C161.007 37.194 161.242 36.5901 161.242 35.8315C161.242 35.0729 161.016 34.4476 160.562 34.0242C160.109 33.6009 159.396 33.3881 158.424 33.3881H156.047V38.3286L156.045 38.3265Z" fill="#9FA4A5"/>
<path d="M167.166 43.5987C166.272 43.0829 165.567 42.3652 165.054 41.4433C164.538 40.5214 164.282 39.477 164.282 38.3101C164.282 37.1432 164.54 36.1009 165.054 35.1769C165.569 34.255 166.272 33.5351 167.166 33.0215C168.06 32.5057 169.055 32.25 170.153 32.25C171.251 32.25 172.263 32.5079 173.157 33.0215C174.051 33.5372 174.754 34.255 175.263 35.1769C175.773 36.0988 176.026 37.1432 176.026 38.3101C176.026 39.477 175.773 40.5192 175.263 41.4433C174.754 42.3652 174.051 43.0851 173.157 43.5987C172.263 44.1144 171.262 44.3702 170.153 44.3702C169.044 44.3702 168.06 44.1123 167.166 43.5987ZM172.53 42.7241C173.233 42.3158 173.787 41.7312 174.193 40.9662C174.602 40.2012 174.804 39.3158 174.804 38.3101C174.804 37.3044 174.599 36.4211 174.193 35.6626C173.785 34.904 173.231 34.3216 172.53 33.9133C171.827 33.505 171.036 33.303 170.153 33.303C169.27 33.303 168.479 33.5071 167.776 33.9133C167.074 34.3216 166.519 34.904 166.113 35.6626C165.705 36.4211 165.503 37.3044 165.503 38.3101C165.503 39.3158 165.707 40.2033 166.113 40.9662C166.521 41.7291 167.076 42.3158 167.776 42.7241C168.477 43.1324 169.27 43.3344 170.153 43.3344C171.036 43.3344 171.827 43.1302 172.53 42.7241Z" fill="#9FA4A5"/>
<path d="M179.338 32.3867V39.8565C179.338 41.0342 179.617 41.9045 180.178 42.4718C180.739 43.037 181.504 43.3207 182.478 43.3207C183.451 43.3207 184.212 43.0413 184.762 42.4804C185.31 41.9195 185.585 41.0471 185.585 39.8565V32.3867H186.773V39.8393C186.773 41.3436 186.374 42.4761 185.576 43.2347C184.779 43.9933 183.739 44.3715 182.46 44.3715C181.182 44.3715 180.144 43.9933 179.344 43.2347C178.547 42.4761 178.147 41.3458 178.147 39.8393V32.3867H179.336H179.338Z" fill="#9FA4A5"/>
<path d="M196.01 38.262C195.341 38.8852 194.34 39.1946 193.005 39.1946H190.611V44.2533H189.423V32.3867H193.005C194.329 32.3867 195.328 32.6983 196.001 33.3194C196.674 33.9426 197.011 34.7678 197.011 35.7971C197.011 36.8265 196.678 37.6366 196.01 38.2598V38.262ZM195.788 35.7993C195.788 35.0063 195.567 34.4067 195.126 34.0006C194.686 33.5923 193.977 33.3903 193.003 33.3903H190.609V38.1782H193.003C194.86 38.1782 195.788 37.3852 195.788 35.8014V35.7993Z" fill="#9FA4A5"/>
</g>
<defs>
<clipPath id="clip0_6727_25270">
<rect width="200" height="43.7981" fill="white" transform="translate(0.0498047 0.902344)"/>
</clipPath>
</defs>
</svg>
